<svg id="Слой_1" data-name="Слой 1" xmlns="http://www.w3.org/2000/svg" viewBox="0 0 372.25 372.25"><defs><style>.cls-1{fill:#256ea4;fill-rule:evenodd;}</style></defs><path class="cls-1" d="M416.21,703.48h97.13c.22-2.17.46-5.69-1.1-7.29-1.87-1.91-3.59-1.69-6.79-1.65-3,0-14.4.21-16.59,0-.34-7.74,1.67-6.94-6.41-6.94-3.31,0-10.3.25-13.18,0,0-2,0-4.14,0-6.19,0-2.79.47-3.56-2.56-3.5-8.06.17-16.14,0-24.2,0-3.14,0-9.39.21-12.05.06-.9-1.14-1-1.74-1-3.43a10.83,10.83,0,0,1,.29-4,75.83,75.83,0,0,0,4.77-21,190.38,190.38,0,0,0,.66-33.12A112.45,112.45,0,0,0,433,601.05c-1.12-5.22-1.63-5.68-3.06-9.8-.52-1.54,5.08-7.89-1.73-15.94-1.08-1.27-1.51-.59-1.43-2.91l.11-12.87q.06-8.56.17-17.16c.07-5.22-1-7.65,8.1-9a80.32,80.32,0,0,1,31.18,1.46c9.5,2.36,17.4,5.56,27.65,6.84,4.35.54,12.33.86,16.6.21,8.52-1.29,10.82-3.83,12.84-4.31,0,3.13-.33,3.55-1.48,6.25-.77,1.83-1.49,3.69-2.24,5.48-1.51,3.63-2.92,7.21-4.41,10.86-3,7.32-5.94,14.5-8.91,21.81s-6,14.45-8.89,21.83c-1.46,3.72-3,7.25-4.48,11s-3.1,7.27-4.42,10.87l-15.92,0c.6,1.32,5.36,6.06,6.92,7.45,12.43,11.11,26.44,17.28,44.54,17.28,19.24,0,34.4-7.18,47.05-19.74.82-.8,4.1-4.18,4.43-5l-16.3,0c-.67-.79-11.61-29.2-13-32.67L527,543.77c-1.38-3.56-1.6-3.63-1.49-7.25,0-1,.49-1.15,1-1.71a5,5,0,0,0,1.55-4.1c-.27-2-2.26-1.12-1.57-3.45,1.88-6.35-4.26-12.72-10.61-10.81a9.77,9.77,0,0,0-5.9,5.6c-2,5,1.17,7.8,1.36,8.56-6.8,1-15.9,0-22.25-1.26a56.76,56.76,0,0,1-9.5-2.71,23.9,23.9,0,0,1-4.11-2.06c-.7-.47-1.09-.88-1.78-1.31-18.48-11.41-22.58-2.68-41.4-1.86.37-.63,1.4-1.45,1.95-2.14,7.46-9.2,4.54-25-1-34.14-1.93-3.19-4.83-6.83-7.31-8.63-.09-2.64,0-5.62,0-8.28,0-1-.14-1,.5-1.52a8,8,0,0,0,2.5-3.51c1.74-4.8-1-9.17-5.59-9.39H423a43.92,43.92,0,0,0-4.78.19c-1.46.32-1.7,1.35-1.75,3-.08,3.27.22,23-.17,23.74-.58,1-2.21-.2-3.25,1.53-.92,1.54,0,3.22,0,3.83-.86.81-12.21,4.69-15.16,18.44A24.48,24.48,0,0,0,399,519a25.65,25.65,0,0,0,2.88,5.55,32.43,32.43,0,0,0,3.82,4.43,66.82,66.82,0,0,1-2.68,6.13c-.91,2-1.82,4-2.69,6-5.16,12-10.93,24.33-16.18,36.39-1.77,4.07-3.61,8.12-5.4,12.17C377.7,592,363,625.43,362.45,626c0,.39-7.7,18-8.17,18.64-.18.75-2.72,6.23-3.26,7.45l-3.31,7.37c-1,2.56-2.16,4.91-3.29,7.39-.58,1.27-1,2.47-1.58,3.76L329,701.89c-.14.34-.73,1.55-.47,1.83.6.31.84-.3,1.16-.72s.55-.72.86-1.11l5.12-7.11c2.18-3.24,4.27-6.56,6.36-9.95,1.37-2.23,6.49-10.69,7.92-12.46.76-1,.93-1.42,2.09-2,3.65-1.81,4.73-.06,6.3.27a22.83,22.83,0,0,1,1.47-2.76c.75-1.24,3.09-7.23,3.85-8.45.28-1,3.86-8.63,4.77-10.91.26-.68,4.36-10.53,4.72-11a31.08,31.08,0,0,1,1.34-3.28l3.91-9.73c5.19-12.12,10.66-26.37,19.64-35.18a27.12,27.12,0,0,1,5.12-4,22.16,22.16,0,0,1,6.62-2.53c.81-.23,1.14-1.6,1.73-2.9l3.08-5.77a37.74,37.74,0,0,0,1.62-3.71v133.1ZM523,625.63l-31.2-.17,31.08-79,.12,79.14Zm2.54-.07V546.63l31.08,79Z" transform="translate(-235.32 -409.6)"/><path class="cls-1" d="M421.44,428a167.71,167.71,0,1,1-118.59,49.12A167.19,167.19,0,0,1,421.44,428Zm115.75,52a163.67,163.67,0,1,0,47.95,115.74A163.18,163.18,0,0,0,537.19,480Z" transform="translate(-235.32 -409.6)"/><path class="cls-1" d="M421.44,409.6a186.11,186.11,0,1,1-131.61,54.51A185.58,185.58,0,0,1,421.44,409.6ZM547,470.13a177.6,177.6,0,1,0,52,125.59A177,177,0,0,0,547,470.13Z" transform="translate(-235.32 -409.6)"/></svg>