<svg id="Слой_1" data-name="Слой 1" xmlns="http://www.w3.org/2000/svg" viewBox="0 0 804.45 804.45"><defs><style>.cls-1{fill:#fff;}</style></defs><path class="cls-1" d="M410.13,828.58H620c.46-4.69,1-12.28-2.39-15.74-4-4.14-7.75-3.65-14.67-3.58-6.48.07-31.12.47-35.85,0-.73-16.72,3.61-15-13.84-15-7.16,0-22.26.52-28.49-.1-.1-4.41-.09-8.95-.09-13.38,0-6,1-7.7-5.54-7.56-17.4.37-34.88,0-52.29,0-6.78,0-20.28.45-26.05.12-1.94-2.46-2.12-3.76-2.24-7.42-.09-2.82-.37-6.29.64-8.75,5.79-14.17,8.71-29.86,10.3-45.4A410.22,410.22,0,0,0,451,640.26a242.66,242.66,0,0,0-4.49-33c-2.41-11.3-3.53-12.27-6.61-21.19-1.14-3.31,11-17-3.75-34.44-2.33-2.75-3.25-1.27-3.09-6.29l.24-27.82q.15-18.48.38-37.08c.15-11.28-2.25-16.53,17.5-19.52a174.21,174.21,0,0,1,67.38,3.16c20.52,5.11,37.6,12,59.76,14.78,9.39,1.17,26.63,1.87,35.87.47,18.4-2.79,23.38-8.29,27.73-9.33,0,6.77-.7,7.67-3.18,13.51-1.68,4-3.22,8-4.84,11.85-3.28,7.84-6.31,15.58-9.54,23.46-6.48,15.82-12.83,31.34-19.26,47.13s-12.95,31.24-19.2,47.17c-3.16,8.06-6.5,15.68-9.68,23.7s-6.7,15.71-9.57,23.49l-34.4,0c1.31,2.86,11.59,13.09,14.95,16.1,26.87,24,57.15,37.33,96.26,37.34,41.58,0,74.34-15.52,101.69-42.66,1.75-1.74,8.84-9,9.56-10.81l-35.23-.07c-1.44-1.69-25.07-63.08-28-70.59L649.65,483.45c-3-7.69-3.46-7.83-3.23-15.67.06-2.24,1.05-2.48,2.18-3.69,1.88-2,3.87-5,3.35-8.86-.59-4.38-4.88-2.42-3.39-7.46,4.06-13.72-9.22-27.48-22.93-23.36-5.91,1.78-10.61,6.88-12.76,12.1-4.42,10.73,2.54,16.85,3,18.51-14.7,2.17-34.37.1-48.08-2.73a122.69,122.69,0,0,1-20.54-5.86,50.79,50.79,0,0,1-8.88-4.45c-1.52-1-2.35-1.9-3.85-2.83-39.92-24.66-48.78-5.8-89.45-4,.8-1.36,3-3.14,4.21-4.63,16.11-19.88,9.81-54-2.17-73.77-4.17-6.89-10.43-14.75-15.79-18.65-.19-5.71,0-12.14.06-17.9,0-2.1-.29-2.12,1.09-3.27a17.41,17.41,0,0,0,5.39-7.58c3.77-10.4-2.24-19.83-12.07-20.31l-.43,0h-.62a92.72,92.72,0,0,0-10.31.42c-3.17.69-3.69,2.91-3.78,6.45-.19,7.07.47,49.81-.37,51.32-1.25,2.24-4.79-.44-7,3.3-2,3.33.07,7,.06,8.27-1.85,1.75-26.38,10.14-32.75,39.85-2.48,11.55-1.35,21,2.39,31.24a55.25,55.25,0,0,0,6.24,12c3.45,4.9,4.53,5.57,8.26,9.58-1.07,3.56-4.15,9.55-5.8,13.25-2,4.43-3.93,8.63-5.82,13-11.16,26-23.63,52.57-35,78.65-3.82,8.79-7.79,17.54-11.68,26.29-2.22,5-34.09,77.28-35.17,78.47-.09.84-16.64,38.81-17.66,40.27-.39,1.64-5.87,13.48-7.05,16.1l-7.14,15.93c-2.14,5.53-4.68,10.61-7.13,16-1.25,2.74-2.16,5.33-3.41,8.13l-29.9,67.63c-.3.73-1.57,3.36-1,4,1.31.67,1.82-.65,2.51-1.57s1.2-1.55,1.85-2.4l11.08-15.36c4.7-7,9.22-14.16,13.73-21.5,3-4.83,14-23.1,17.12-26.93,1.65-2,2-3.05,4.52-4.29,7.88-3.92,10.22-.13,13.61.57a51.73,51.73,0,0,1,3.19-6c1.6-2.68,6.68-15.63,8.32-18.27.6-2.16,8.33-18.66,10.29-23.58.58-1.46,9.43-22.75,10.2-23.82a68.26,68.26,0,0,1,2.91-7.1l8.45-21c11.22-26.2,23-57,42.45-76a57.45,57.45,0,0,1,11.06-8.68c4.9-3,8.36-3.82,14.29-5.48,1.75-.49,2.48-3.46,3.74-6.26L406.64,549c2.16-4.88,3.09-6.48,3.49-8V828.58ZM640.87,660.35,573.45,660,640.6,489.33l.27,171Zm5.48-.16,0-170.55L713.54,660.3Z" transform="translate(-19.22 -193.5)"/><path class="cls-1" d="M421.44,233.29A362.45,362.45,0,1,1,165.17,339.45,361.27,361.27,0,0,1,421.44,233.29Zm250.14,112.3a353.77,353.77,0,1,0,103.6,250.13A352.66,352.66,0,0,0,671.58,345.59Z" transform="translate(-19.22 -193.5)"/><path class="cls-1" d="M421.44,193.5A402.23,402.23,0,1,1,137,311.31,401,401,0,0,1,421.44,193.5ZM692.87,324.3A383.87,383.87,0,1,0,805.29,595.72,382.68,382.68,0,0,0,692.87,324.3Z" transform="translate(-19.22 -193.5)"/></svg>